<?xml version="1.0" standalone="no"?>
<!DOCTYPE svg PUBLIC "-//W3C//DTD SVG 20010904//EN"
 "http://www.w3.org/TR/2001/REC-SVG-20010904/DTD/svg10.dtd">
<svg version="1.0" xmlns="http://www.w3.org/2000/svg"
 width="210.000000pt" height="210.000000pt" viewBox="0 0 210.000000 210.000000"
 preserveAspectRatio="xMidYMid meet">
<metadata>
Created by potrace 1.14, written by Peter Selinger 2001-2017
</metadata>
<g transform="translate(0.000000,210.000000) scale(0.100000,-0.100000)"
fill="#000000" stroke="none">
<path d="M1320 2018 c0 -5 -4 -7 -9 -3 -5 3 -31 -2 -58 -11 -49 -16 -214 -96
-236 -114 -7 -5 -39 -30 -73 -55 -89 -65 -246 -225 -278 -283 -5 -10 -12 -19
-15 -22 -11 -9 -86 -124 -101 -155 -8 -16 -21 -36 -28 -43 -7 -8 -10 -18 -7
-23 4 -5 1 -9 -4 -9 -6 0 -11 -4 -11 -9 0 -5 -12 -35 -27 -67 -15 -33 -28 -61
-28 -64 -1 -3 -9 -22 -18 -44 -87 -199 -101 -465 -32 -613 8 -17 15 -36 15
-42 0 -6 3 -11 8 -11 4 0 16 -16 26 -35 10 -19 35 -49 55 -68 35 -32 135 -97
156 -101 5 -2 27 -10 48 -19 20 -9 38 -16 40 -16 1 1 27 -10 57 -23 30 -14 60
-26 65 -27 35 -7 61 -15 70 -20 6 -3 15 -6 20 -7 47 -9 66 -13 72 -17 29 -18
290 -26 363 -12 64 12 138 42 182 74 67 47 78 57 78 69 0 6 5 12 11 14 6 2 19
28 29 57 38 114 -7 287 -129 490 -47 79 -67 106 -143 185 -27 28 -48 54 -48
59 0 4 -4 6 -8 3 -5 -3 -15 4 -22 15 -8 10 -20 19 -28 19 -7 0 -10 5 -7 10 3
6 -1 10 -9 10 -9 0 -16 5 -16 10 0 6 -6 10 -14 10 -8 0 -16 4 -18 8 -1 4 -21
21 -43 37 -33 24 -29 18 22 -36 83 -85 152 -163 149 -167 -2 -1 -47 41 -100
94 -53 53 -96 94 -96 90 0 -6 -12 2 -45 32 -8 7 -15 10 -15 5 0 -4 -4 -3 -8 3
-8 12 -92 47 -92 39 0 -3 -10 0 -22 6 -35 19 -146 13 -210 -11 -32 -12 -58
-26 -58 -32 0 -6 -7 -5 -16 3 -24 20 -14 104 21 173 15 31 32 56 37 56 4 0 8
6 8 13 0 24 165 171 235 210 38 21 76 39 84 40 9 1 21 6 27 9 6 4 24 10 40 13
16 3 43 9 59 12 34 7 165 7 210 -1 96 -16 142 -30 206 -62 46 -23 109 -87 109
-110 0 -18 59 -64 81 -64 44 0 71 69 45 117 -20 38 -80 103 -94 103 -7 0 -12
4 -12 9 0 12 -113 65 -175 81 -52 14 -235 19 -295 8 -65 -12 -89 -18 -114 -28
-13 -5 -27 -6 -30 -3 -3 4 -6 1 -6 -5 0 -7 -8 -12 -18 -12 -10 0 -28 -7 -40
-16 -12 -8 -22 -12 -22 -7 0 4 -4 3 -8 -2 -4 -6 -20 -17 -37 -25 -87 -43 -259
-197 -303 -272 -9 -15 -20 -28 -24 -28 -4 0 -8 -6 -8 -12 0 -7 -14 -35 -31
-63 -19 -30 -28 -40 -24 -25 3 14 8 41 11 60 4 32 70 174 94 203 61 74 80 95
109 121 78 71 85 76 153 110 26 12 53 27 60 33 17 12 154 55 187 58 15 1 37 5
51 10 14 4 50 9 80 10 30 2 65 3 77 4 24 1 53 26 53 46 0 7 -9 23 -19 36 -17
21 -28 24 -95 25 -42 0 -76 -3 -76 -8z m-345 -962 c74 -17 140 -63 249 -172
163 -163 202 -277 99 -288 -15 -2 -45 3 -65 10 -21 7 -38 11 -38 7 0 -3 -7 0
-15 7 -8 6 -19 9 -25 5 -5 -3 -10 -1 -10 5 0 6 -4 9 -10 5 -5 -3 -17 -2 -27 4
-10 5 -49 19 -88 31 -79 25 -158 60 -163 72 -2 4 -9 8 -16 8 -17 0 -70 57 -95
103 -47 85 -12 186 71 202 11 3 22 6 25 8 4 5 79 0 108 -7z"/>
<path d="M345 1143 c-75 -76 -145 -219 -172 -353 -7 -35 -7 -220 0 -250 3 -14
8 -36 11 -49 31 -140 102 -241 214 -301 26 -14 49 -27 52 -30 3 -3 10 -6 15
-7 6 -1 33 -11 62 -22 61 -22 149 -36 156 -24 3 4 -1 14 -9 21 -8 7 -14 11
-14 8 0 -7 -113 59 -160 92 -55 40 -145 138 -169 185 -44 87 -58 148 -59 252
0 143 31 282 97 425 36 78 25 102 -24 53z"/>
</g>
</svg>
